<svg width="155" height="155" viewBox="0 0 155 155" fill="none" xmlns="http://www.w3.org/2000/svg">
<circle cx="77.5" cy="77.5" r="77.5" fill="#020202"/>
<path d="M148.375 80.875C148.375 81.5417 148.333 82.0417 148.25 82.375C145.833 83.2083 143.458 83.9167 141.125 84.5C138.875 85.0833 136.458 85.5833 133.875 86C132.958 86.1667 132.042 86.4583 131.125 86.875C130.292 87.2083 129.417 87.5 128.5 87.75L106.75 93.875C106.25 94.0417 105.542 94.25 104.625 94.5L101.875 95.25C100.958 95.5 100.083 95.7917 99.25 96.125C98.4167 96.375 97.8333 96.5833 97.5 96.75C96.1667 97.4167 95.125 98.8333 94.375 101C93.7083 103.083 93.125 105.417 92.625 108C92.2083 110.583 91.8333 113.125 91.5 115.625C91.25 118.042 90.875 119.958 90.375 121.375C90.875 123.125 91.0833 124.917 91 126.75C91 128.583 91.2083 130.375 91.625 132.125C90.7083 132.125 90.0833 132.375 89.75 132.875C89.5 133.375 89.3333 133.917 89.25 134.5C89.1667 135.167 89.0833 135.833 89 136.5C88.9167 137.25 88.5833 137.875 88 138.375C86.4167 138.292 84.7917 138.083 83.125 137.75C81.5417 137.5 79.9167 137.417 78.25 137.5C77.3333 136.333 76.6667 135.042 76.25 133.625C75.9167 132.208 75.25 130.958 74.25 129.875L74.125 129.5C74.125 129.083 74.3333 128.917 74.75 129C75.1667 129.083 75.4583 129.125 75.625 129.125L76 129C76.5833 127.25 77.0417 125.333 77.375 123.25C77.7083 121.25 77.875 119.333 77.875 117.5V116.125C77.875 115.625 77.8333 115.125 77.75 114.625C78.5833 112.792 79.25 110.917 79.75 109C80.25 107.083 80.5 105.125 80.5 103.125V102.625C78.9167 102.042 77.4583 101.75 76.125 101.75C74.7917 101.75 73.5 101.917 72.25 102.25C71 102.583 69.7083 102.958 68.375 103.375C67.125 103.708 65.875 104.083 64.625 104.5C63.375 104.917 62.0833 105.167 60.75 105.25C60.1667 105.333 59.7083 105.542 59.375 105.875C59.125 106.125 58.875 106.458 58.625 106.875C58.4583 107.208 58.2083 107.542 57.875 107.875C57.625 108.125 57.25 108.292 56.75 108.375L56.875 108.125C56.875 107.792 56.6667 107.625 56.25 107.625C55.8333 107.542 55.5417 107.5 55.375 107.5C55.2083 107.5 54.9167 107.583 54.5 107.75C54.0833 107.833 53.7917 107.917 53.625 108C52.2083 108.417 50.9583 109.042 49.875 109.875C48.875 110.625 48.375 111.792 48.375 113.375C48.375 113.708 48.375 114 48.375 114.25C48.4583 114.5 48.5417 114.792 48.625 115.125C48.7917 115.292 49 115.375 49.25 115.375C49.5 115.375 49.7917 115.25 50.125 115C50.4583 114.667 50.9167 114.5 51.5 114.5C51.6667 114.5 51.7917 114.542 51.875 114.625C51.9583 114.625 52.0833 114.625 52.25 114.625C52.25 115.375 52.3333 115.958 52.5 116.375C52.75 116.792 53 117.208 53.25 117.625L54.125 118.75C54.4583 119.083 54.7083 119.5 54.875 120C54.7083 121.25 54.375 122.458 53.875 123.625C53.375 124.792 53 125.958 52.75 127.125C51.75 127.625 50.8333 128.167 50 128.75C49.25 129.417 48.5 130.083 47.75 130.75C47.0833 131 46.3333 131.125 45.5 131.125C44.1667 131.125 42.8333 130.917 41.5 130.5C40.25 130.083 38.9167 129.875 37.5 129.875C36.3333 128.375 35.5 126.792 35 125.125C34.5833 123.458 34.375 121.667 34.375 119.75C34.375 118.333 34.4583 117 34.625 115.75C34.7917 114.5 34.9583 113.208 35.125 111.875C33.2083 111.375 31.25 111.125 29.25 111.125C27.75 111.125 26.2083 111.208 24.625 111.375C23.0417 111.542 21.5 111.625 20 111.625C18.75 111.625 17.5 111.542 16.25 111.375C15.0833 111.125 13.9167 110.708 12.75 110.125C12.1667 109.208 11.7917 108.292 11.625 107.375C11.4583 106.375 11.375 105.292 11.375 104.125V102C11.375 101.25 11.4167 100.542 11.5 99.875C12.9167 98.7083 14.4583 98 16.125 97.75C17.7917 97.4167 19.4583 97.25 21.125 97.25C22.7083 97.25 24.2917 97.3333 25.875 97.5C27.4583 97.5833 29.0833 97.625 30.75 97.625C32.5 97.625 34.25 97.4583 36 97.125C37.8333 96.7917 39.5417 96.0417 41.125 94.875C41.2083 93.7083 41.4167 92.5417 41.75 91.375C42.1667 90.125 42.9583 89.2083 44.125 88.625C44.5417 85.9583 45.2083 83.3333 46.125 80.75C47.125 78.1667 48.5417 75.875 50.375 73.875C50.375 72.7083 50.25 71.5833 50 70.5C49.8333 69.4167 49.8333 68.2917 50 67.125C48.5833 67.2917 47.0833 67.375 45.5 67.375C44 67.375 42.6667 67.875 41.5 68.875C40.25 68.4583 39.125 68.25 38.125 68.25C36.2917 68.25 34.5417 68.5417 32.875 69.125C31.2917 69.7083 29.625 70 27.875 70C26.7083 70 25.75 69.8333 25 69.5C24.0833 70 23.1667 70.375 22.25 70.625C21.4167 70.875 20.5417 71.2083 19.625 71.625C18.375 71.2917 17.125 71.125 15.875 71.125C13.875 71.125 11.9583 71.5833 10.125 72.5H9.75C9 72.5833 8.41667 72.4167 8 72C7.58333 71.5833 6.91667 71.4583 6 71.625C6.25 71.125 6.375 70.5417 6.375 69.875C6.375 68.625 6.16667 67.4167 5.75 66.25C5.25 65.0833 4.91667 63.875 4.75 62.625C5.08333 62.2083 5.5 61.9167 6 61.75C6.5 61.5 7 61.2917 7.5 61.125C8 60.9583 8.45833 60.75 8.875 60.5C9.29167 60.1667 9.58333 59.7083 9.75 59.125C10.3333 59.0417 10.75 59.1667 11 59.5C11.25 59.8333 11.7083 60 12.375 60C12.875 60 13.6667 59.75 14.75 59.25C15.8333 58.6667 16.5417 58.1667 16.875 57.75C17.2083 57.9167 17.5417 58.0417 17.875 58.125C18.2917 58.2083 18.6667 58.4167 19 58.75H19.5C19.9167 58.75 20.1667 58.5833 20.25 58.25C20.3333 57.8333 20.5833 57.625 21 57.625C21.4167 57.625 21.7917 57.6667 22.125 57.75C22.4583 57.8333 22.8333 57.875 23.25 57.875C24.25 57.875 25.2083 57.7917 26.125 57.625C27.125 57.375 28.0833 57.25 29 57.25C29.25 57.25 29.5417 57.2917 29.875 57.375C30.2083 57.4583 30.5 57.5833 30.75 57.75C31.25 57.4167 31.875 57.25 32.625 57.25C33.375 57.1667 33.9167 56.875 34.25 56.375C35.9167 56.375 37.5417 56.25 39.125 56C40.7917 55.6667 42.4167 55.3333 44 55C45.5833 54.5833 47.1667 54.25 48.75 54C50.3333 53.6667 51.9583 53.5833 53.625 53.75C54.0417 53.5833 54.375 53.2917 54.625 52.875C54.9583 52.375 55.3333 52.0417 55.75 51.875C56.5833 48.625 57.4583 45.4167 58.375 42.25C59.2917 39 59.75 35.7083 59.75 32.375C59.75 30.9583 59.625 29.5417 59.375 28.125C59.9583 26.7917 60.5417 25.2917 61.125 23.625C62.9583 21.7917 65.1667 20.875 67.75 20.875C70.0833 20.875 71.9583 21.7917 73.375 23.625C73.2917 24.0417 73.25 24.6667 73.25 25.5C73.25 28 73.875 30.375 75.125 32.625C74.9583 35.2917 74.625 37.875 74.125 40.375C73.625 42.875 73.2083 45.3333 72.875 47.75C73.375 48.1667 73.875 48.4167 74.375 48.5C74.875 48.5833 75.4167 48.625 76 48.625C77.8333 48.625 79.625 48.375 81.375 47.875C83.125 47.375 84.9167 47.2083 86.75 47.375C88.8333 46.7083 90.9167 46.2917 93 46.125C95.1667 45.875 97.25 45.4167 99.25 44.75C99.6667 44.0833 99.9583 43.25 100.125 42.25C100.375 41.25 100.875 40.5833 101.625 40.25C101.375 39.9167 101.25 39.5 101.25 39C101.25 37.4167 101.667 35.9583 102.5 34.625C103.333 33.2083 103.75 31.7083 103.75 30.125C103.75 29.625 103.625 29.125 103.375 28.625C104.125 27.9583 104.667 27.1667 105 26.25C105.417 25.3333 106.083 24.625 107 24.125C106.75 23.875 106.583 23.5833 106.5 23.25C106.5 22.9167 106.5 22.625 106.5 22.375V20.5C107.083 20 107.625 19.4167 108.125 18.75C108.708 18.0833 109.25 17.4583 109.75 16.875C110.333 16.2083 110.917 15.6667 111.5 15.25C112.167 14.8333 112.958 14.625 113.875 14.625C115.542 14.625 116.833 15.25 117.75 16.5C118.667 17.6667 119.542 18.8333 120.375 20V20.375C120.375 21.625 120.208 22.75 119.875 23.75C119.625 24.6667 119.292 25.5417 118.875 26.375C118.542 27.2083 118.125 28.0417 117.625 28.875C117.125 29.7083 116.708 30.625 116.375 31.625C116.375 33.5417 116.208 35.0417 115.875 36.125C115.542 37.125 115.083 38.5 114.5 40.25C115.75 40.8333 117.083 41.125 118.5 41.125C120.333 41.125 122.083 40.875 123.75 40.375C125.5 39.875 127.292 39.625 129.125 39.625H130C130.333 39.625 130.708 39.6667 131.125 39.75C131.792 39.5833 132.458 39.4583 133.125 39.375C133.875 39.2083 134.542 38.9167 135.125 38.5C136.875 38.8333 138.375 39.5833 139.625 40.75C140.958 41.8333 142.458 42.5833 144.125 43C144.208 43.3333 144.25 43.8333 144.25 44.5C144.25 46.5833 143.667 48.0833 142.5 49C141.333 49.9167 139.917 50.625 138.25 51.125C136.667 51.5417 135 51.9167 133.25 52.25C131.5 52.5833 130.042 53.2083 128.875 54.125C127.792 53.875 126.542 53.75 125.125 53.75C123.792 53.6667 122.667 53.3333 121.75 52.75C120.083 53.4167 118.417 53.875 116.75 54.125C115.167 54.2917 113.542 54.4583 111.875 54.625C109.792 56.0417 108.292 57.75 107.375 59.75C106.542 61.6667 106.125 63.8333 106.125 66.25C104.792 68.75 103.792 71.3333 103.125 74C102.458 76.6667 101.667 79.3333 100.75 82C101.333 82.25 102.083 82.375 103 82.375C104.333 82.375 105.625 82.1667 106.875 81.75C108.125 81.25 109.375 80.75 110.625 80.25C110.958 80.25 111.25 80.2917 111.5 80.375C111.833 80.375 112.208 80.375 112.625 80.375C114.708 80.375 116.75 80.0833 118.75 79.5C120.75 78.8333 122.792 78.5 124.875 78.5C125.292 78.5 125.75 78.5417 126.25 78.625C126.75 78.7083 127.208 78.75 127.625 78.75C128.292 78.75 128.792 78.5 129.125 78C129.458 77.5 129.958 77.1667 130.625 77C131.208 77.25 131.958 77.375 132.875 77.375C133.792 77.375 134.667 77.25 135.5 77C136.333 76.6667 137.208 76.5 138.125 76.5C138.875 76.5 139.542 76.6667 140.125 77C141.292 76.4167 142.458 76.125 143.625 76.125C144.958 76.125 146.083 76.5833 147 77.5C147.917 78.3333 148.375 79.4583 148.375 80.875ZM93.5 60.875C92.8333 60.5417 92.1667 60.3333 91.5 60.25C90.9167 60.1667 90.2917 60.125 89.625 60.125C87.9583 60.125 86.25 60.2917 84.5 60.625C82.8333 60.9583 81.1667 61.125 79.5 61.125C79.0833 61.125 78.625 61.125 78.125 61.125C77.7083 61.0417 77.2917 60.9583 76.875 60.875C76.625 61.2917 76.4167 61.7083 76.25 62.125C76.1667 62.5417 75.9167 62.875 75.5 63.125H73C72.0833 63.125 71.125 63.2083 70.125 63.375C69.2083 63.5417 68.3333 63.8333 67.5 64.25C66.75 64.5833 66.125 65.125 65.625 65.875C65.125 66.625 64.5833 67.7083 64 69.125C63.4167 70.5417 62.7917 72.0417 62.125 73.625L60.25 78.375C59.6667 79.9583 59.0833 81.2917 58.5 82.375V83C58.5 84.0833 58.3333 85.0417 58 85.875C57.6667 86.625 57.2917 87.375 56.875 88.125C56.4583 88.7917 56.0417 89.5 55.625 90.25C55.2917 90.9167 55.0417 91.75 54.875 92.75H55.125C57.4583 92.75 59.75 92.5833 62 92.25C64.25 91.8333 66.5 91.4167 68.75 91L75.5 89.625C77.75 89.125 80 88.7917 82.25 88.625C82.9167 88.0417 83.5833 87.5833 84.25 87.25C85 86.9167 85.6667 86.5 86.25 86C86.3333 84.75 86.5417 83.5833 86.875 82.5C87.2917 81.3333 87.7083 80.2083 88.125 79.125C88.5417 77.9583 88.9167 76.8333 89.25 75.75C89.6667 74.5833 89.875 73.375 89.875 72.125C90.4583 71.2917 91.0417 70.7083 91.625 70.375C91.5417 69.9583 91.5 69.3333 91.5 68.5C91.5 67.1667 91.7083 65.875 92.125 64.625C92.625 63.375 93.0833 62.125 93.5 60.875Z" fill="white"/>
</svg>
